# xmcd
# 
# Track frame offsets:
#     150
#     14296
#     29582
#     47640
#     64726
#     80223
#     96142
#     109224
#     124766
#     141967
#     157302
#     173872
#     189872
#     207057
#     222496
#     237643
#     254017
#     265901
#     279268
#     295082
#     310601
#     326650
#     344371
# 
# Disc length: 4796
# 
# Revision: 2
# Processed by: cddbd v1.5.2PL0 Copyright (c) Steve Scherf et al.
# Submitted via: BonkEnc v1.0
# 
DISCID=6412ba17
DTITLE=Hot 97 - 2001 Blazin Hip-Hop And R and B
DYEAR=2001
DGENRE=Blues
TTITLE0=Smash Somethin-Redman
TTITLE1=Bad Boy Forever-P.Diddy, Black Rob, G-Dep
TTITLE2=I Cant Deny It-Fabulous
TTITLE3=Grimey-CNN
TTITLE4=We Gonna Make It-Jadakiss
TTITLE5=Please Dont Mind-Philly Most Wanted
TTITLE6=Area Codes-LudaCris
TTITLE7=Music-Eric Sermon feat. Marvin Gaye
TTITLE8=Still Got love For You-Beanie Segal, Jay-Z, Rell
TTITLE9=Beanie MAck-Beanie Seigal
TTITLE10=One Minute Man- Missy feat Jay-Z, Ludacris
TTITLE11=Raise it Up-Petey Pablo
TTITLE12=Purple Pills-D12
TTITLE13=This is me (RMX)-Dream
TTITLE14=Where's The Party at-JAgged Edge Feat. Nelly
TTITLE15=Im Real-J Lo feat Ja Rule
TTITLE16=Gangsta-Lil Mo
TTITLE17=Round and Round-Hi-Teck feat Janell
TTITLE18=Not Your Friend-Case
TTITLE19=Wait A Minute-Ray J feat. Lil Kim
TTITLE20=U Remind Me-Usher
TTITLE21=Loverboy-Mariah Carey feat. Da Brat, Ludacris
TTITLE22=Chi-Chi Mon-TDK Crew
EXTD=\nYEAR: 2001  ID3G:   0
EXTT0=
EXTT1=
EXTT2=
EXTT3=
EXTT4=
EXTT5=
EXTT6=
EXTT7=
EXTT8=
EXTT9=
EXTT10=
EXTT11=
EXTT12=
EXTT13=
EXTT14=
EXTT15=
EXTT16=
EXTT17=
EXTT18=
EXTT19=
EXTT20=
EXTT21=
EXTT22=
PLAYORDER=
